# xmcd
# 
# Track frame offsets:
#     150
#     24582
#     50037
#     71665
#     97300
#     130140
#     151890
#     172880
#     186955
#     206135
#     228985
#     247322
# 
# Disc length: 3539
# 
# Revision: 1
# Processed by: cddbd v1.5.2PL0 Copyright (c) Steve Scherf et al.
# Submitted via: fre:ac v1.0.27
# 
DISCID=b00dd10c
DTITLE=Beth Orton - Central Reservation
DYEAR=1999
DGENRE=Folk-influenced IRE/UK Rock
TTITLE0=Stolen Car
TTITLE1=Sweetest Decline
TTITLE2=Couldn't Cause Me Harm
TTITLE3=So Much More
TTITLE4=Pass in Time
TTITLE5=Central Reservation [Original Version]
TTITLE6=Stars All Seem to Weep
TTITLE7=Love Like Laughter
TTITLE8=Blood Red River
TTITLE9=Devil Song
TTITLE10=Feel to Believe
TTITLE11=Central Reservation [The Then Again Version]
EXTD=
EXTT0=
EXTT1=
EXTT2=
EXTT3=
EXTT4=
EXTT5=
EXTT6=
EXTT7=
EXTT8=
EXTT9=
EXTT10=
EXTT11=
PLAYORDER=
